<?xml version="1.0" standalone="no"?>
<!DOCTYPE svg PUBLIC "-//W3C//DTD SVG 20010904//EN"
 "http://www.w3.org/TR/2001/REC-SVG-20010904/DTD/svg10.dtd">
<svg version="1.0" xmlns="http://www.w3.org/2000/svg"
 width="555.000000pt" height="555.000000pt" viewBox="0 0 555.000000 555.000000"
 preserveAspectRatio="xMidYMid meet">
<metadata>
Created by potrace 1.14, written by Peter Selinger 2001-2017
</metadata>
<g transform="translate(0.000000,555.000000) scale(0.100000,-0.100000)"
fill="#000000" stroke="none">
<path d="M2563 5324 c-109 -19 -270 -69 -284 -87 -3 -5 -9 -8 -13 -8 -14 2
-104 -49 -166 -95 -129 -95 -261 -255 -319 -389 -12 -27 -26 -59 -31 -70 -80
-183 -108 -509 -65 -753 2 -15 7 -45 10 -67 4 -22 13 -63 21 -91 8 -28 16 -60
19 -70 12 -60 85 -246 139 -355 171 -344 406 -609 650 -734 128 -65 208 -85
325 -81 240 9 486 186 703 507 230 338 373 750 383 1099 4 141 -1 199 -29 335
-20 99 -116 314 -171 383 -56 71 -134 161 -155 178 -14 12 -35 30 -47 40 -54
47 -68 58 -121 91 -191 123 -412 183 -661 181 -64 -1 -148 -7 -188 -14z m306
-724 c50 -33 94 -60 100 -60 5 0 11 -4 13 -9 4 -11 199 -104 253 -121 22 -7
49 -16 60 -20 11 -5 56 -20 100 -35 197 -68 309 -145 343 -237 24 -63 21 -133
-12 -283 -48 -214 -99 -361 -191 -551 -129 -264 -285 -439 -466 -524 -238
-111 -531 -46 -744 165 -170 169 -319 477 -379 785 -25 127 -27 141 -33 270
-5 117 -4 128 18 175 21 45 110 145 129 145 5 0 15 6 22 13 25 24 124 67 238
103 101 32 155 56 241 106 13 7 63 41 113 76 49 34 93 62 98 62 4 0 48 -27 97
-60z"/>
<path d="M2035 2814 c-55 -13 -111 -25 -125 -27 -103 -20 -469 -144 -520 -177
-8 -6 -26 -15 -40 -20 -113 -47 -300 -173 -403 -273 -242 -235 -322 -515 -237
-833 72 -270 269 -481 595 -639 133 -65 351 -144 427 -155 4 -1 22 -6 40 -11
51 -16 229 -52 313 -64 22 -3 51 -7 65 -10 62 -9 160 -19 310 -32 187 -15 675
-9 855 11 126 15 152 18 165 21 8 2 38 7 65 10 28 4 66 10 85 15 19 5 52 11
74 14 21 4 41 8 45 10 3 2 22 7 41 10 46 7 241 67 333 102 353 135 605 360
693 620 66 193 56 413 -25 583 -31 66 -80 145 -92 149 -5 2 -9 8 -9 13 0 5 -8
17 -17 27 -10 10 -32 34 -49 53 -140 153 -385 317 -644 429 -41 18 -93 40
-115 50 -48 21 -266 96 -353 121 l-62 18 -30 -52 c-33 -58 -37 -77 -15 -77 22
0 296 -92 399 -134 189 -78 412 -204 536 -304 78 -63 210 -202 210 -221 0 -5
4 -11 9 -13 16 -6 89 -174 103 -238 21 -94 16 -214 -13 -325 -13 -49 -88 -195
-100 -195 -5 0 -9 -6 -9 -12 0 -20 -118 -131 -195 -183 -150 -103 -440 -216
-640 -249 -16 -2 -66 -11 -110 -19 -78 -15 -116 -20 -220 -32 -27 -3 -64 -8
-82 -10 -114 -16 -641 -23 -790 -11 -189 15 -229 18 -246 22 -10 2 -45 6 -78
9 -33 4 -70 8 -82 11 -12 2 -37 6 -57 9 -38 6 -70 12 -110 20 -14 3 -35 7 -48
10 -12 2 -50 11 -85 20 -34 9 -71 18 -81 21 -30 6 -177 55 -216 71 -197 85
-323 164 -425 267 -150 152 -218 326 -209 541 11 299 214 547 595 729 154 74
396 159 512 180 15 2 35 7 45 10 9 3 29 7 45 10 15 3 35 7 45 10 9 3 35 7 56
11 22 3 41 7 43 9 4 4 -56 115 -65 119 -4 2 -52 -7 -107 -19z"/>
<path d="M2221 2630 c-4 -8 -7 -181 -6 -385 l2 -370 32 -80 c59 -145 239 -494
410 -795 17 -30 48 -85 69 -122 20 -38 39 -68 42 -68 3 0 32 43 65 96 33 53
65 101 71 107 5 7 13 19 17 27 4 8 25 44 48 80 59 93 242 399 259 435 8 17 17
32 20 35 11 10 108 216 121 255 10 30 13 137 14 418 0 207 -2 377 -5 378 -21
4 -103 3 -108 -1 -10 -7 -10 -6 -17 -215 -4 -105 -8 -206 -10 -225 -1 -19 -6
-71 -9 -115 -7 -88 -16 -152 -30 -220 -12 -59 -108 -255 -126 -255 -5 0 -94
393 -92 405 1 2 -5 22 -13 44 -7 22 -11 41 -8 44 2 3 0 14 -6 25 -8 15 2 41
50 136 32 64 59 121 59 126 0 6 -100 10 -270 9 -148 0 -270 -2 -270 -5 0 -3
26 -58 58 -122 32 -64 57 -121 57 -127 -1 -5 -7 -36 -14 -67 -7 -32 -13 -61
-13 -65 0 -5 -4 -17 -8 -29 -5 -11 -11 -38 -14 -60 -4 -21 -9 -47 -12 -56 -3
-9 -7 -25 -9 -35 -32 -152 -49 -222 -54 -218 -5 6 -69 169 -76 195 -2 8 -15
50 -29 92 -14 42 -28 87 -30 100 -3 13 -14 58 -24 100 -16 64 -19 112 -18 280
1 112 -1 216 -4 233 -6 29 -8 30 -59 30 -37 0 -55 -4 -60 -15z"/>
<path d="M3768 2092 c-12 -2 -15 -25 -14 -143 1 -77 -2 -146 -6 -152 -4 -7
-58 -11 -154 -11 l-148 -1 -1 -153 0 -152 155 0 155 0 0 -152 0 -153 148 -1
c93 -1 150 3 154 9 4 6 6 75 6 154 l-1 143 154 0 154 0 0 153 0 152 -154 0
-154 0 0 148 c0 81 -2 151 -6 154 -6 7 -258 11 -288 5z"/>
</g>
</svg>
