<?xml version="1.0" standalone="no"?>
<!DOCTYPE svg PUBLIC "-//W3C//DTD SVG 20010904//EN"
 "http://www.w3.org/TR/2001/REC-SVG-20010904/DTD/svg10.dtd">
<svg version="1.0" xmlns="http://www.w3.org/2000/svg"
 width="1500.000000pt" height="1500.000000pt" viewBox="0 0 1500.000000 1500.000000"
 preserveAspectRatio="xMidYMid meet">
<metadata>
Created by potrace 1.14, written by Peter Selinger 2001-2017
</metadata>
<g transform="translate(0.000000,1500.000000) scale(0.100000,-0.100000)"
fill="#000000" stroke="none">
<path d="M2847 14470 c-85 -27 -160 -81 -210 -150 -9 -14 -23 -34 -31 -45 -11
-16 -18 -17 -37 -9 -36 15 -239 7 -404 -16 -416 -59 -824 -230 -1165 -490
-117 -89 -281 -242 -357 -331 -98 -117 -115 -137 -152 -189 -205 -285 -358
-635 -425 -975 -35 -172 -41 -249 -41 -480 0 -181 5 -260 20 -365 9 -61 26
-174 31 -205 19 -124 84 -398 131 -555 128 -431 353 -926 609 -1340 29 -47 54
-92 56 -100 3 -12 -53 -14 -362 -15 -234 -1 -374 -6 -390 -12 -102 -44 -132
-181 -57 -261 54 -58 -8 -55 1097 -55 774 0 1024 3 1052 12 20 7 50 27 65 44
15 18 91 157 168 310 77 152 143 273 147 269 6 -6 158 -390 288 -727 158 -412
305 -775 323 -802 48 -70 155 -82 226 -25 39 30 45 45 620 1491 128 321 187
457 192 444 12 -31 207 -547 291 -767 43 -114 87 -219 96 -232 9 -13 35 -33
58 -44 39 -20 59 -20 834 -20 785 0 794 0 837 21 53 26 93 88 93 145 0 51 -36
113 -80 138 -34 21 -48 21 -745 23 -842 2 -765 0 -765 14 0 10 -177 484 -199
534 -5 11 -68 176 -140 368 -73 191 -136 358 -142 370 -12 27 -84 76 -114 78
-70 5 -119 -13 -152 -55 -17 -21 -146 -338 -400 -981 -41 -104 -81 -203 -88
-220 -7 -16 -34 -84 -60 -150 -25 -66 -55 -139 -65 -162 -11 -24 -20 -49 -20
-57 0 -8 -4 -17 -9 -20 -5 -3 -12 -18 -16 -33 -3 -15 -15 -45 -24 -68 -10 -22
-35 -84 -56 -138 -21 -53 -42 -94 -47 -89 -7 7 -169 418 -537 1363 -50 127
-83 166 -154 175 -59 8 -129 -16 -155 -54 -11 -15 -110 -207 -221 -427 l-202
-400 -390 0 -391 0 -31 45 c-46 68 -188 292 -198 315 -5 11 -20 38 -34 60 -88
142 -232 432 -330 666 -58 137 -182 499 -201 584 -1 6 -9 37 -17 70 -26 98
-72 330 -83 415 -3 25 -9 70 -14 100 -41 245 -28 563 31 810 11 47 22 92 24
100 13 58 97 273 140 361 254 510 679 893 1210 1087 201 74 420 118 629 128
66 3 131 7 143 10 19 3 26 -5 52 -59 59 -123 187 -217 319 -235 33 -5 66 -7
74 -6 7 1 33 5 58 8 115 17 249 119 302 231 130 278 -72 597 -376 594 -40 0
-96 -8 -129 -19z"/>
<path d="M6556 14465 c-176 -72 -278 -226 -270 -411 6 -156 98 -292 245 -358
65 -30 96 -37 172 -37 161 0 308 95 379 246 24 53 33 63 46 56 10 -5 78 -11
152 -15 162 -8 170 -9 335 -42 123 -24 302 -77 372 -109 17 -8 34 -15 38 -15
4 0 55 -24 113 -53 745 -373 1203 -1102 1215 -1932 1 -95 -10 -292 -17 -304
-2 -3 -7 -31 -10 -61 -4 -30 -11 -80 -16 -110 -5 -30 -12 -71 -15 -90 -86
-539 -358 -1208 -733 -1805 -125 -198 -343 -509 -436 -622 -8 -10 -38 -47 -66
-83 -76 -97 -276 -334 -325 -386 -5 -6 -46 -51 -90 -100 -84 -95 -549 -562
-675 -679 -93 -87 -364 -324 -485 -425 -49 -41 -92 -77 -95 -80 -12 -13 -355
-284 -470 -371 -244 -186 -520 -382 -730 -520 -157 -103 -301 -194 -326 -207
-23 -12 -95 30 -419 248 -350 235 -894 639 -1117 829 -13 11 -57 47 -98 81
-102 85 -270 230 -290 250 -3 3 -43 39 -90 80 -324 287 -710 683 -1057 1085
-38 44 -82 86 -98 94 -124 60 -261 -54 -225 -187 7 -30 150 -218 189 -252 3
-3 40 -43 81 -90 136 -154 202 -222 455 -475 221 -221 310 -306 510 -485 27
-25 52 -47 55 -50 19 -21 391 -333 455 -383 6 -4 24 -19 40 -33 51 -43 353
-275 464 -357 252 -184 644 -452 894 -609 l75 -47 1 -493 c0 -271 3 -518 5
-548 3 -30 8 -89 11 -130 5 -66 18 -182 30 -260 8 -56 18 -116 21 -135 3 -11
12 -56 20 -99 27 -139 78 -327 134 -498 326 -981 1008 -1827 1909 -2367 468
-280 1018 -478 1546 -556 22 -4 47 -8 55 -10 8 -2 47 -7 85 -10 39 -4 84 -9
100 -11 127 -17 577 -23 750 -10 453 34 910 140 1324 308 127 51 370 168 471
227 30 18 63 35 73 38 9 3 17 9 17 14 0 5 5 9 11 9 18 0 255 156 394 260 114
85 230 179 296 240 586 541 976 1130 1224 1849 68 197 138 470 169 661 17 104
32 217 42 310 3 36 7 66 8 67 1 1 26 4 56 8 145 16 353 79 514 155 74 35 216
115 251 142 227 173 353 304 482 498 102 152 205 385 238 539 3 11 7 30 10 42
2 11 6 28 9 37 6 21 15 77 26 167 9 72 6 391 -4 435 -3 13 -8 42 -11 65 -20
137 -91 351 -169 505 -237 469 -681 817 -1194 934 -59 14 -134 28 -167 31 -33
3 -76 8 -95 11 -47 7 -222 6 -290 0 -130 -14 -160 -18 -260 -42 -179 -42 -409
-135 -530 -214 -246 -161 -414 -324 -561 -543 -97 -146 -216 -414 -244 -552
-47 -231 -62 -453 -42 -630 58 -525 351 -1005 792 -1299 63 -42 252 -141 345
-180 96 -40 295 -90 405 -102 84 -8 116 -15 111 -22 -2 -4 -6 -32 -10 -62 -11
-100 -17 -144 -26 -195 -5 -27 -12 -66 -14 -85 -3 -19 -8 -44 -10 -55 -3 -11
-12 -54 -21 -95 -78 -370 -234 -773 -433 -1125 -111 -197 -328 -500 -480 -671
-114 -129 -287 -296 -448 -434 -153 -133 -392 -296 -629 -430 -193 -110 -625
-292 -795 -336 -68 -17 -131 -34 -160 -43 -45 -14 -370 -78 -435 -85 -27 -4
-70 -9 -95 -12 -25 -3 -70 -7 -100 -9 -30 -2 -95 -7 -145 -11 -156 -11 -466
-6 -600 11 -91 11 -125 15 -175 20 -193 20 -618 127 -830 210 -301 117 -488
208 -735 358 -88 54 -304 206 -380 268 -242 199 -420 376 -633 629 -11 14 -59
77 -106 140 -238 322 -450 730 -576 1109 -59 178 -135 484 -154 621 -2 19 -8
58 -11 85 -4 28 -9 61 -11 75 -2 14 -6 48 -9 75 -2 28 -7 77 -11 110 -4 33 -8
295 -9 582 l-2 522 71 42 c54 32 463 301 620 408 90 62 341 246 525 386 156
118 456 359 556 446 288 251 294 256 474 424 231 215 553 547 762 785 103 118
114 130 184 215 463 558 871 1212 1090 1745 26 63 55 133 65 155 17 38 138
393 145 425 2 8 22 85 44 171 22 86 42 174 45 194 4 21 8 47 11 59 5 24 13 65
21 116 3 19 12 77 20 129 25 160 28 210 29 396 0 157 -8 310 -19 371 -2 10 -7
39 -11 64 -14 85 -16 95 -36 175 -11 44 -22 87 -24 95 -21 94 -119 342 -180
455 -61 112 -71 130 -99 175 -212 335 -471 596 -802 805 -94 60 -362 195 -386
195 -8 0 -18 4 -23 9 -13 13 -234 86 -321 106 -258 61 -579 87 -654 54 l-37
-17 -16 34 c-37 77 -130 156 -227 192 -81 29 -207 28 -284 -3z"/>
</g>
</svg>
